Coordinates
version=1
nRows=10
nColumns=23
inDegrees=yes

Units are S.I. units (second, meters, Newtons, ...)
If the header above contains a line with 'inDegrees', this indicates whether rotational values are in degrees (yes) or radians (no).

endheader
time	pelvis_tilt	pelvis_list	pelvis_rotation	pelvis_tx	pelvis_ty	pelvis_tz	hip_flexion_r	hip_adduction_r	hip_rotation_r	knee_angle_r	knee_angle_r_beta	ankle_angle_r	subtalar_angle_r	mtp_angle_r	hip_flexion_l	hip_adduction_l	hip_rotation_l	knee_angle_l	knee_angle_l_beta	ankle_angle_l	subtalar_angle_l	mtp_angle_l
     15.00000000	     -0.09718864	     -7.92578346	    -12.79058715	      2.33673004	      0.93859113	      1.06420176	     21.85335701	     15.85015387	      5.08084800	     29.36659950	      0.51254385	      8.49538021	      0.19890536	      0.00000000	     -9.21023780	    -12.02058168	    -22.71542892	     96.67334145	      1.68726811	    -12.81997637	    -27.31088045	      0.00000000
     15.00666667	      0.14996151	     -8.42427664	    -13.37364128	      2.33388634	      0.93306056	      1.06417152	     21.97619805	     16.04630796	      4.07681530	     32.79426483	      0.57236790	      9.55821576	      0.86829311	      0.00000000	     -7.73293387	    -12.75066609	    -22.56972473	    100.22038372	      1.74917567	    -11.91888455	    -27.44188176	      0.00000000
     15.01333333	      0.36757076	     -8.91571573	    -13.87800476	      2.33097533	      0.92789779	      1.06381433	     21.95519944	     16.18612504	      3.30806342	     35.99766578	      0.62827779	     11.05267199	      1.59953398	      0.00000000	     -6.07547019	    -13.46154545	    -22.20111352	    103.58196554	      1.80784634	    -11.00149611	    -27.22809406	      0.00000000
     15.02000000	      0.51698627	     -9.37826662	    -14.25196178	      2.32805428	      0.92319953	      1.06304549	     21.82650868	     16.19316594	      2.55574871	     38.90263457	      0.67897906	     12.88562284	      2.68646998	      0.00000000	     -4.15993725	    -14.13539324	    -21.55288036	    106.72452278	      1.86269432	    -10.16100757	    -26.68578693	      0.00000000
     15.02666667	      0.61931178	     -9.78043115	    -14.47607308	      2.32522005	      0.91919327	      1.06192493	     21.49663084	     16.05948913	      1.90163692	     41.36761936	      0.72200116	     14.96120599	      3.90605113	      0.00000000	     -1.99140696	    -14.73076339	    -20.61098370	    109.59114846	      1.91272637	     -9.46527108	    -25.86597029	      0.00000000
     15.03333333	      0.62189983	    -10.14382997	    -14.59234873	      2.32246294	      0.91587830	      1.06063901	     20.98542099	     15.90750939	      1.47780217	     43.31873542	      0.75605456	     17.04296731	      5.03177642	      0.00000000	      0.46033783	    -15.29313997	    -19.42647592	    112.17064608	      1.95774710	     -8.70899339	    -24.49401256	      0.00000000
     15.04000000	      0.57847931	    -10.49925062	    -14.54649089	      2.31989015	      0.91337534	      1.05919494	     20.21434924	     15.75603460	      1.21051109	     44.69666324	      0.78010394	     18.98705939	      5.92705939	      0.00000000	      3.12548240	    -15.84906068	    -17.97584240	    114.41866659	      1.99698246	     -7.89863028	    -22.60982740	      0.00000000
     15.04666667	      0.38836289	    -10.56383465	    -14.43112262	      2.31738800	      0.91141950	      1.05772647	     19.46282476	     15.27809807	      0.91896798	     45.75166115	      0.79851713	     20.98347870	      7.19314146	      0.00000000	      6.17337425	    -16.04314098	    -16.36370968	    116.29511986	      2.02973275	     -7.20001180	    -20.50791769	      0.00000000
     15.05333333	      0.23873727	    -10.62345975	    -14.10646217	      2.31522871	      0.91033819	      1.05619690	     18.38241408	     14.80116926	      0.69561212	     46.25868506	      0.80736636	     22.70456522	      8.14180848	      0.00000000	      9.26874620	    -16.17459840	    -14.54773535	    117.76250728	      2.05534349	     -6.39993942	    -18.15668142	      0.00000000
     15.06000000	      0.30059342	    -10.72353808	    -13.59625080	      2.31344731	      0.91034411	      1.05477721	     16.76905484	     14.42107418	      0.69334606	     46.19680216	      0.80628630	     24.12579791	      8.44584220	      0.00000000	     12.14568024	    -16.22582359	    -12.60228624	    118.75827546	      2.07272292	     -5.79987073	    -15.79742382	      0.00000000
